<svg version="1.1" viewBox="0.0 0.0 617.0393700787401 395.08923884514434" fill="none" stroke="none" stroke-linecap="square" stroke-miterlimit="10" xmlns:xlink="http://www.w3.org/1999/xlink" xmlns="http://www.w3.org/2000/svg"><clipPath id="p.0"><path d="m0 0l617.03937 0l0 395.08923l-617.03937 0l0 -395.08923z" clip-rule="nonzero"/></clipPath><g clip-path="url(#p.0)"><path fill="#000000" fill-opacity="0.0" d="m0 0l617.03937 0l0 395.08923l-617.03937 0z" fill-rule="evenodd"/><path fill="#a61c00" d="m3.3312757 237.08775l133.2126 -230.4252l133.2126 230.4252z" fill-rule="evenodd"/><path fill="#a61c00" d="m51.880615 277.71384c6.2480164 0.112579346 11.145111 2.0263672 14.691284 5.7414246c3.546173 3.7150269 5.3192596 8.583984 5.3192596 14.606842c0 5.854004 -1.7637177 10.357086 -5.291115 13.509216c-3.5086555 3.1521606 -8.612133 4.728241 -15.310459 4.728241l-22.627956 0l0 -38.585724zm-48.54879 -20.51715l0 122.93399l25.329802 0l0 -43.313965l22.205795 0c14.578705 0 25.986504 -3.4711304 34.223373 -10.413361c8.255646 -6.9609985 12.383461 -16.464386 12.383461 -28.510101c0 -7.936676 -1.8856659 -15.010254 -5.65699 -21.220764c-3.7713242 -6.229248 -9.165634 -11.032532 -16.18293 -14.409821c-6.998535 -3.3773193 -15.113445 -5.065979 -24.344753 -5.065979z" fill-rule="evenodd"/><path fill="#a61c00" d="m162.23412 255.50804c-10.244492 0 -19.241257 2.411026 -26.99031 7.2330475c-7.7302704 4.8032837 -13.678093 11.708008 -17.843437 20.714172c-4.165344 9.006134 -6.2480164 19.419495 -6.2480164 31.240082l0 7.514496c0 18.51892 4.512459 33.088226 13.537369 43.707977c9.043678 10.601013 21.4459 15.901489 37.206673 15.901489c14.409836 0 26.014648 -3.799469 34.814407 -11.398407c8.818512 -7.598938 13.706238 -18.012299 14.663132 -31.240082l-25.329803 0c-0.56288147 7.4863586 -2.776886 13.021393 -6.642029 16.605103c-3.8463745 3.564911 -9.68161 5.3473816 -17.505707 5.3473816c-8.6684265 0 -15.019638 -3.0677185 -19.05365 -9.2031555c-4.0152283 -6.135437 -6.0228577 -15.845184 -6.0228577 -29.129272l0 -9.287598c0.112579346 -12.721191 2.2609253 -22.1026 6.4450226 -28.144226c4.202881 -6.060364 10.52594 -9.090576 18.969208 -9.090576c7.767807 0 13.546768 1.7918396 17.336853 5.3755493c3.8088531 3.5649414 6.0228577 9.315735 6.642029 17.25241l25.329803 0c-1.3509216 -13.734375 -6.3605957 -24.401031 -15.029022 -31.99997c-8.668411 -7.5989685 -20.09497 -11.398422 -34.279663 -11.398422z" fill-rule="evenodd"/><path fill="#a61c00" d="m276.47153 255.50804c-10.469666 0 -19.607147 2.3828888 -27.412476 7.148636c-7.7865753 4.7469788 -13.753143 11.614166 -17.89972 20.601562c-4.127823 8.968628 -6.191742 19.588379 -6.191742 31.859253l0 8.358856c0.112579346 11.933136 2.3453522 22.31836 6.6983337 31.15564c4.3717346 8.83728 10.563461 15.58252 18.57518 20.235718c8.030502 4.6343994 17.365005 6.951599 28.003494 6.951599c10.1319275 0 19.36325 -1.5010071 27.69394 -4.5030518c8.330688 -3.0208435 14.775696 -7.2612305 19.335083 -12.721191l0 -49.05539l-48.379944 0l0 18.659607l23.05014 0l0 21.192596c-4.052765 4.0527954 -10.835541 6.0791626 -20.348297 6.0791626c-9.456451 0 -16.63321 -3.2928772 -21.530304 -9.878632c-4.89711 -6.585724 -7.3456573 -16.323639 -7.3456573 -29.213684l0 -7.852234c0.056289673 -12.777496 2.335968 -22.402802 6.839035 -28.875977c4.5030823 -6.473175 11.060699 -9.709778 19.672821 -9.709778c6.754608 0 12.055115 1.6323853 15.901489 4.8970947c3.8651428 3.26474 6.3605957 8.415131 7.4863586 15.451202l24.654358 0c-1.5198059 -13.284088 -6.388733 -23.397247 -14.606873 -30.339478c-8.218109 -6.961029 -19.616516 -10.441513 -34.19522 -10.441513z" fill-rule="evenodd"/><path fill="#a61c00" d="m345.79074 257.1967l0 122.93399l79.113434 0l0 -20.348297l-53.78363 0l0 -102.58569z" fill-rule="evenodd"/><path fill="#a61c00" d="m487.29993 338.58978l0 15.704498c-1.463501 2.7018433 -3.7150574 4.859558 -6.7546387 6.4731445c-3.0395508 1.5948486 -6.3605957 2.392273 -9.963043 2.392273c-3.7150269 0 -6.642029 -0.9850464 -8.781006 -2.9551392c-2.1389465 -1.9700928 -3.208435 -4.474945 -3.208435 -7.5145264l0.08444214 -1.4353333c0.7880249 -8.443268 7.289337 -12.664917 19.503937 -12.664917zm-12.242767 -51.503937c-7.4300537 0 -14.128387 1.2852783 -20.09497 3.855774c-5.9665527 2.5517273 -10.582214 6.0791626 -13.846954 10.582214c-3.2647095 4.5030823 -4.8970947 9.400177 -4.8970947 14.691284l24.401062 0c0 -3.4335938 1.1632996 -6.135437 3.4898682 -8.10553c2.3453674 -1.9700928 5.572571 -2.9551392 9.68161 -2.9551392c4.671936 0 8.086792 1.2664795 10.244507 3.799469c2.1764832 2.5329895 3.26474 5.9102783 3.26474 10.1319275l0 5.234833l-11.229553 0c-13.565521 0.056274414 -23.941345 2.6736755 -31.127533 7.852234c-7.167389 5.178528 -10.751068 12.608612 -10.751068 22.290222c0 7.880371 2.9363708 14.409851 8.809143 19.588379c5.89151 5.178528 13.312195 7.7677917 22.262054 7.7677917c9.456482 0 17.139862 -3.2928467 23.05014 -9.878601c0.5065918 3.2647095 1.3227844 5.9947205 2.4485474 8.189972l24.654358 0l0 -1.4353638c-2.3641357 -4.4467773 -3.5743408 -11.004395 -3.6306152 -19.672821l0 -39.598907c0 -10.244507 -3.3116455 -18.190552 -9.934937 -23.838165c-6.604492 -5.666382 -15.535614 -8.499573 -26.793304 -8.499573z" fill-rule="evenodd"/><path fill="#a61c00" d="m570.9727 306.92755c5.7976685 0 10.160034 2.1295776 13.087036 6.388733c2.927002 4.240387 4.390503 10.976227 4.390503 20.20755c0 7.598938 -0.5910034 13.25592 -1.7730713 16.970947c-2.4766846 7.7678223 -7.6552734 11.651733 -15.535645 11.651733c-7.8240967 0 -13.227783 -3.2084656 -16.21106 -9.625336l0 -36.052765c2.927002 -6.360565 8.274414 -9.540863 16.042236 -9.540863zm-40.4433 -56.485474l0 129.6886l21.952515 0l1.0976562 -9.709778c5.9102783 7.598938 13.818787 11.398407 23.725525 11.398407c11.201416 0 19.926147 -4.090271 26.174133 -12.270874c6.248047 -8.199341 9.37207 -19.616516 9.37207 -34.251526l0 -1.3509216c0 -14.860138 -3.1709595 -26.380524 -9.512756 -34.561096c-6.32312 -8.199341 -15.05719 -12.299042 -26.20227 -12.299042c-9.175049 0 -16.576965 3.2928772 -22.20581 9.878632l0 -46.5224z" fill-rule="evenodd"/><path fill="#cccccc" d="m126.759094 241.94441l97.55905 -168.7559l97.55905 168.7559z" fill-rule="evenodd"/><path stroke="#ffffff" stroke-width="8.0" stroke-linejoin="round" stroke-linecap="butt" d="m126.759094 241.94441l97.55905 -168.7559l97.55905 168.7559z" fill-rule="evenodd"/><path fill="#000000" d="m356.83466 167.66177l69.60629 0l0 69.41733l-69.60629 0z" fill-rule="evenodd"/><path fill="#a61c00" d="m440.1424 167.66177l69.60629 0l0 69.41733l-69.60629 0z" fill-rule="evenodd"/><path fill="#a61c00" d="m523.45013 167.66177l69.60632 0l0 69.41733l-69.60632 0z" fill-rule="evenodd"/><path fill="#666666" d="m523.45013 87.16154l69.60632 0l0 69.41732l-69.60632 0z" fill-rule="evenodd"/><path fill="#a61c00" d="m440.1424 6.6613064l69.60629 0l0 69.41732l-69.60629 0z" fill-rule="evenodd"/><path fill="#000000" d="m346.5077 257.1967l0 122.93399l79.1134 0l0 -20.348297l-53.7836 0l0 -102.58569z" fill-rule="evenodd"/><path fill="#000000" d="m488.01685 338.58978l0 15.704498c-1.463501 2.7018433 -3.7150269 4.859558 -6.754608 6.4731445c-3.0395813 1.5948486 -6.3605957 2.392273 -9.963074 2.392273c-3.7150269 0 -6.642029 -0.9850464 -8.780975 -2.9551392c-2.138977 -1.9700928 -3.2084656 -4.474945 -3.2084656 -7.5145264l0.08444214 -1.4353333c0.7880554 -8.443268 7.2893677 -12.664917 19.503967 -12.664917zm-12.242737 -51.503937c-7.430084 0 -14.128387 1.2852783 -20.09497 3.855774c-5.9665833 2.5517273 -10.582245 6.0791626 -13.846954 10.582214c-3.26474 4.5030823 -4.8970947 9.400177 -4.8970947 14.691284l24.401031 0c0 -3.4335938 1.1632996 -6.135437 3.4898987 -8.10553c2.345337 -1.9700928 5.5725403 -2.9551392 9.68161 -2.9551392c4.671936 0 8.086761 1.2664795 10.244476 3.799469c2.1764832 2.5329895 3.26474 5.9102783 3.26474 10.1319275l0 5.234833l-11.229553 0c-13.565521 0.056274414 -23.941345 2.6736755 -31.127502 7.852234c-7.167389 5.178528 -10.751099 12.608612 -10.751099 22.290222c0 7.880371 2.9363708 14.409851 8.809143 19.588379c5.8915405 5.178528 13.312225 7.7677917 22.262085 7.7677917c9.456451 0 17.139832 -3.2928467 23.05011 -9.878601c0.5065918 3.2647095 1.3227844 5.9947205 2.4485474 8.189972l24.654358 0l0 -1.4353638c-2.3641357 -4.4467773 -3.5743408 -11.004395 -3.6306152 -19.672821l0 -39.598907c0 -10.244507 -3.3116455 -18.190552 -9.934906 -23.838165c-6.6045227 -5.666382 -15.535614 -8.499573 -26.793304 -8.499573z" fill-rule="evenodd"/><path fill="#000000" d="m571.68964 306.92755c5.7977295 0 10.160034 2.1295776 13.087036 6.388733c2.927002 4.240387 4.390503 10.976227 4.390503 20.20755c0 7.598938 -0.5910034 13.25592 -1.7730713 16.970947c-2.4766846 7.7678223 -7.6552124 11.651733 -15.5355835 11.651733c-7.8240967 0 -13.227844 -3.2084656 -16.21112 -9.625336l0 -36.052765c2.927002 -6.360565 8.274414 -9.540863 16.042236 -9.540863zm-40.443237 -56.485474l0 129.6886l21.952454 0l1.0976562 -9.709778c5.9102783 7.598938 13.818787 11.398407 23.725586 11.398407c11.201355 0 19.926086 -4.090271 26.174133 -12.270874c6.247986 -8.199341 9.372009 -19.616516 9.372009 -34.251526l0 -1.3509216c0 -14.860138 -3.1708984 -26.380524 -9.512756 -34.561096c-6.323059 -8.199341 -15.057129 -12.299042 -26.20227 -12.299042c-9.174988 0 -16.576965 3.2928772 -22.20581 9.878632l0 -46.5224z" fill-rule="evenodd"/></g></svg>